# xmcd
#
# Track frame offsets: 
#        150
#        15597
#        34052
#
# Disc length: 658 seconds
#
# Revision: 1
# Processed by: cddbd v1.5.2PL0 Copyright (c) Steve Scherf et al.
# Submitted via: ExactAudioCopy v0.99pb5
#
DISCID=18029003
DTITLE=Falling Joys - Fiesta!
DYEAR=1993
DGENRE=Alternative
TTITLE0=Fiesta!
TTITLE1=Thirst
TTITLE2=Tasty
EXTD=YEAR: 1998 ID3G: 17
EXTT0=
EXTT1=
EXTT2=
PLAYORDER=
